<svg width="613" height="184" viewBox="0 0 613 184" fill="none" xmlns="http://www.w3.org/2000/svg">
<path d="M0 135.384L68.8926 43.0754C73.9112 36.351 81.7923 32.3679 90.1826 32.3149L136.683 32.0195L67.7908 124.328C62.7721 131.052 54.8911 135.036 46.5007 135.089L0 135.384Z" fill="white"/>
<path d="M74.9668 135.386L120.811 73.9602C124.15 69.4849 129.394 66.8345 134.979 66.7985L165.922 66.6035L120.078 128.03C116.739 132.505 111.495 135.155 105.91 135.191L74.9668 135.386Z" fill="white"/>
<path d="M250.922 24.373L266.826 24.2983V135.925H250.922V124.277C244.5 133.312 235.242 137.867 223.22 137.941C212.319 137.941 203.21 134.059 195.892 126.368C188.575 118.677 184.916 109.045 184.916 97.4719C184.916 85.9732 188.575 76.3412 195.892 68.6505C203.21 60.9598 212.319 57.0771 223.22 57.0771C235.242 57.0771 244.5 61.6318 250.922 70.7411V24.373ZM225.834 123.531L225.61 123.605C232.703 123.605 238.751 121.141 243.679 116.213C248.607 111.285 251.071 105.013 251.071 97.4719C251.071 90.0052 248.607 83.8078 243.679 78.8798C238.751 73.9518 232.778 71.4878 225.684 71.4878C218.367 71.4878 212.394 73.9518 207.69 78.8052C202.986 83.6585 200.671 89.8559 200.671 97.3972C200.671 104.939 203.06 111.211 207.764 116.139C212.468 121.067 218.516 123.531 225.834 123.531ZM316.748 138.016L316.897 138.165C304.727 138.165 294.871 134.432 287.255 126.965C279.639 119.499 275.831 109.717 275.831 97.6959C275.831 86.1225 279.489 76.4905 286.807 68.7998C294.124 61.1091 303.681 57.2264 315.404 57.2264C327.575 57.2264 337.132 60.8851 344.151 68.2771C351.17 75.6692 354.679 84.9278 354.679 96.1279C354.679 98.0692 354.53 100.235 354.156 102.549H291.66C292.183 109.045 294.647 114.272 299.127 118.229C303.607 122.187 309.655 124.203 317.196 124.203C327.799 124.203 335.116 120.096 339.074 111.808L353.708 116.139C350.946 122.187 346.391 127.339 340.044 131.595C333.698 135.851 325.932 138.016 316.748 138.016ZM291.66 91.9465H338.924C338.402 85.8239 336.087 80.8212 331.98 76.9385C327.873 73.0558 322.348 71.1145 315.479 71.1145C308.833 71.1145 303.383 73.1305 299.052 77.1625C294.721 81.1945 292.257 86.1225 291.66 91.9465ZM363.31 136V24.373H379.364V136H363.31ZM429.211 138.016H429.137C417.414 138.016 407.707 134.133 399.942 126.443C392.177 118.752 388.294 109.12 388.294 97.5466C388.294 86.0479 392.177 76.4158 399.942 68.7251C407.707 61.0344 417.414 57.1518 429.137 57.1518C440.859 57.1518 450.641 60.9598 458.406 68.6505C466.171 76.3412 470.054 85.9732 470.054 97.5466C470.054 109.12 466.171 118.752 458.406 126.443C450.641 134.133 440.934 138.016 429.211 138.016ZM429.137 123.456C436.454 123.456 442.502 120.992 447.281 116.064C452.059 111.136 454.449 105.013 454.449 97.6959C454.449 90.2292 452.059 84.0318 447.281 79.1038C442.502 74.1758 436.454 71.7118 429.137 71.7118C421.819 71.7118 415.771 74.1758 411.067 79.1038C406.363 84.0318 403.974 90.2292 403.974 97.6959C403.974 105.013 406.363 111.136 411.067 116.064C415.771 120.992 421.819 123.456 429.137 123.456ZM495.038 71.3385L494.963 71.4131C497.278 66.6345 500.712 63.0505 505.267 60.6611C509.822 58.2718 515.198 57.4504 521.32 58.2718V73.2051C512.883 71.9358 506.387 73.5785 501.832 78.1332C497.278 82.6878 495.038 90.3785 495.038 101.28V136H478.984V59.0931H495.038V71.3385ZM556.832 138.016V137.941C545.931 137.941 536.821 134.059 529.504 126.368C522.187 118.677 518.528 109.045 518.528 97.4719C518.528 85.9732 522.187 76.3412 529.504 68.6505C536.821 60.9598 545.931 57.0771 556.832 57.0771C568.853 57.0771 578.112 61.6318 584.533 70.7411V59.0931H600.438V136H584.533V124.352C578.112 133.461 568.853 138.016 556.832 138.016ZM559.445 123.531L559.221 123.605C566.315 123.605 572.363 121.141 577.291 116.213C582.219 111.285 584.683 105.013 584.683 97.4719C584.683 90.0052 582.219 83.8078 577.291 78.8798C572.363 73.9518 566.389 71.4878 559.296 71.4878C551.979 71.4878 546.005 73.9518 541.301 78.8052C536.597 83.6585 534.283 89.8559 534.283 97.3972C534.283 104.939 536.672 111.211 541.376 116.139C546.08 121.067 552.128 123.531 559.445 123.531Z" fill="white"/>
</svg>
